<svg xmlns="http://www.w3.org/2000/svg"
    width="1000.000000pt" height="1000.000000pt" viewBox="0 0 1000.000000 1000.000000"
>

    <g transform="translate(0.000000,1000.000000) scale(0.100000,-0.100000)"
        fill="#ffffff" stroke="none">
        <path
            d="M4415 9993 c-886 -121 -1654 -433 -2346 -953 -1006 -755 -1692 -1879
-1898 -3110 -53 -317 -65 -463 -65 -825 0 -362 12 -508 65 -825 343 -2050
1979 -3686 4029 -4029 317 -53 463 -65 825 -65 362 0 508 12 825 65 2050 343
3686 1979 4029 4029 53 317 65 463 65 825 0 362 -12 508 -65 825 -206 1231
-892 2355 -1898 3110 -634 476 -1329 776 -2131 922 l-175 31 -615 2 c-338 2
-628 1 -645 -2z m1068 -188 c574 -57 1121 -214 1635 -470 482 -240 862 -514
1242 -895 381 -380 655 -760 895 -1242 329 -660 488 -1343 488 -2093 0 -750
-159 -1433 -488 -2093 -240 -482 -514 -862 -895 -1242 -380 -381 -760 -655
-1242 -895 -660 -329 -1343 -488 -2093 -488 -750 0 -1433 159 -2093 488 -482
240 -862 514 -1242 895 -381 380 -655 760 -895 1242 -329 660 -488 1343 -488
2093 0 750 159 1433 488 2093 240 482 514 862 895 1242 380 381 760 655 1242
895 590 294 1182 447 1893 489 116 7 507 -5 658 -19z" />
        <path
            d="M4997 9004 c-4 -58 -2 -82 9 -99 13 -20 13 -52 -4 -278 -14 -202 -21
-260 -34 -274 -11 -12 -17 -43 -20 -98 l-3 -80 165 -11 c91 -7 169 -8 173 -4
9 8 4 132 -8 208 l-7 42 119 0 c110 0 124 2 174 28 76 38 105 97 120 247 17
171 -1 249 -71 309 -48 40 -118 55 -344 71 -296 21 -262 29 -269 -61z m381
-150 c20 -14 22 -23 21 -97 -1 -45 -4 -93 -8 -107 -8 -29 -53 -54 -84 -46 -21
5 -22 8 -15 93 3 48 7 107 7 131 1 39 3 42 29 42 15 0 38 -7 50 -16z" />
        <path
            d="M4550 9049 c-41 -4 -99 -11 -128 -14 l-53 -7 7 -76 c5 -56 12 -82 25
-95 11 -10 19 -21 19 -25 0 -4 11 -119 25 -256 22 -214 24 -251 12 -270 -11
-16 -12 -38 -6 -95 4 -40 10 -76 13 -79 6 -5 240 14 304 25 l33 6 -6 76 c-5
55 -13 81 -26 94 -11 10 -19 23 -19 30 0 7 -11 122 -25 256 -22 214 -23 248
-11 266 14 21 14 52 0 143 -5 30 -7 32 -47 31 -23 -1 -76 -5 -117 -10z" />
        <path
            d="M5953 8908 c-14 -53 -17 -79 -10 -95 14 -32 -116 -493 -150 -534 -26
-30 -68 -159 -55 -170 5 -4 359 -106 612 -176 13 -3 28 38 75 206 32 116 56
213 54 214 -7 6 -231 68 -233 65 -1 -2 -15 -46 -30 -98 -32 -110 -39 -120 -76
-120 -61 0 -61 -4 2 218 32 114 63 224 69 245 5 21 20 48 32 60 12 12 32 54
43 94 l22 73 -67 19 c-118 35 -250 71 -259 71 -5 0 -18 -33 -29 -72z" />
        <path
            d="M3765 8921 c-124 -36 -217 -98 -250 -167 -27 -57 -19 -128 41 -344
30 -112 65 -228 76 -257 55 -149 174 -194 374 -143 107 27 175 62 241 124 l56
52 -38 139 c-21 77 -41 144 -45 148 -7 8 -237 -50 -253 -63 -4 -4 2 -42 14
-85 25 -93 18 -125 -30 -125 -16 0 -34 7 -41 15 -14 17 -130 435 -130 469 0
31 22 48 57 44 25 -3 30 -10 48 -63 11 -33 20 -61 21 -63 2 -4 254 65 259 70
2 2 -11 57 -29 123 l-33 120 -49 12 c-74 17 -219 14 -289 -6z" />
        <path
            d="M6838 8623 c-19 -39 -31 -80 -30 -99 3 -43 -205 -485 -235 -498 -11
-5 -36 -42 -56 -82 l-36 -72 150 -71 c82 -39 153 -71 157 -71 4 0 22 29 40 65
22 45 30 73 26 90 -5 19 21 82 101 252 106 226 127 263 150 263 10 0 79 139
72 147 -5 5 -297 143 -303 143 -3 0 -19 -30 -36 -67z" />
        <path
            d="M3030 8619 c-77 -8 -178 -47 -258 -99 -158 -103 -192 -204 -120 -352
79 -160 156 -190 363 -142 100 23 139 19 169 -17 33 -39 36 -93 5 -109 -42
-23 -65 -8 -114 75 -10 16 -22 12 -133 -44 l-122 -61 57 -110 58 -110 70 0
c86 0 164 19 248 61 156 78 227 164 227 276 0 39 -8 83 -21 118 -22 59 -84
145 -124 171 -41 27 -138 29 -259 5 -59 -11 -118 -18 -131 -15 -32 8 -60 66
-45 94 6 11 22 23 37 26 21 6 32 1 53 -23 15 -17 29 -36 32 -43 2 -7 45 10
120 50 l117 61 -46 94 c-45 89 -48 93 -82 97 -20 1 -65 0 -101 -3z" />
        <path
            d="M7406 8344 c-27 -37 -46 -75 -46 -90 0 -18 -40 -83 -122 -198 -153
-216 -185 -256 -206 -256 -15 0 -102 -113 -102 -132 0 -7 192 -145 213 -154
18 -6 97 106 97 139 0 24 112 194 118 178 1 -4 -18 -96 -43 -204 -26 -109 -44
-201 -41 -206 9 -13 203 -151 214 -151 4 0 102 131 216 290 145 203 212 290
226 290 11 0 36 24 64 64 25 36 46 67 46 70 0 12 -232 168 -239 160 -39 -45
-81 -116 -81 -136 0 -14 -12 -43 -26 -64 -55 -81 -88 -124 -91 -120 -3 2 18
93 46 201 28 108 49 201 46 205 -3 4 -58 46 -124 93 l-119 85 -46 -64z" />
        <path
            d="M2185 8129 c-166 -124 -155 -107 -105 -176 24 -32 57 -65 74 -73 20
-10 76 -74 153 -175 155 -203 183 -243 183 -270 0 -30 89 -148 104 -137 6 5
66 50 134 101 67 50 122 95 122 100 0 19 -84 117 -112 131 -43 21 -338 410
-338 446 0 15 -19 50 -46 85 -25 32 -46 59 -47 59 -1 0 -56 -41 -122 -91z" />
        <path
            d="M4686 7824 c-603 -80 -1134 -337 -1574 -761 -56 -54 -102 -103 -102
-109 0 -6 24 -20 53 -31 l52 -20 109 104 c271 259 616 467 976 586 281 94 514
130 825 130 311 0 544 -36 825 -130 360 -119 705 -327 976 -586 l109 -104 53
20 c28 11 52 25 52 31 0 16 -188 195 -304 288 -221 179 -521 347 -786 441
-144 52 -369 109 -520 133 -147 23 -595 28 -744 8z" />
        <path
            d="M8229 7707 c-31 -29 -59 -64 -63 -78 -8 -36 -379 -369 -410 -369 -14
0 -47 -22 -82 -54 l-59 -54 26 -29 c14 -15 110 -122 214 -238 103 -115 194
-216 201 -224 14 -15 31 -2 199 152 l60 54 -88 97 -89 96 -41 -35 c-22 -19
-46 -35 -53 -35 -7 0 -27 12 -44 27 l-32 26 69 63 68 63 61 -66 61 -67 66 58
66 59 -59 66 -60 65 33 34 c17 19 45 43 61 55 l29 20 18 -22 c26 -32 24 -64
-7 -100 l-26 -31 33 -38 c18 -20 56 -63 84 -95 l53 -58 111 102 c62 55 111
105 109 109 -4 11 -442 498 -448 499 -3 0 -30 -23 -61 -52z" />
        <path
            d="M1735 7717 c-49 -24 -112 -85 -324 -310 l-83 -89 53 -54 c40 -40 61
-54 82 -54 30 0 33 -2 270 -224 93 -87 140 -139 144 -157 3 -15 30 -51 60 -80
l55 -54 75 80 c292 311 308 334 301 444 -3 56 -9 74 -35 110 -38 51 -356 349
-407 380 -55 35 -130 37 -191 8z m123 -319 c201 -185 252 -238 252 -266 -1
-15 -9 -38 -20 -50 l-20 -24 -190 178 -190 177 22 24 c37 39 70 31 146 -39z" />
        <path
            d="M4894 7098 c-6 -7 -37 -73 -69 -145 -57 -129 -60 -133 -90 -133 -101
1 -617 -25 -627 -31 -19 -12 9 -55 46 -72 26 -12 72 -12 296 -2 146 7 266 11
268 10 1 -1 -47 -112 -109 -246 -168 -368 -180 -406 -142 -470 34 -57 94 -57
177 0 50 35 56 37 56 17 0 -19 55 -64 87 -72 15 -4 30 -1 38 7 7 8 52 100 100
206 l87 192 83 80 c73 70 141 119 150 109 2 -2 -33 -84 -78 -183 -101 -225
-109 -272 -54 -331 63 -69 129 -44 274 104 73 74 81 95 41 108 -15 5 -39 -13
-108 -80 -48 -47 -90 -86 -93 -86 -9 0 -3 14 85 212 43 97 78 189 78 205 0 31
-27 77 -56 97 -52 35 -113 25 -197 -32 l-47 -33 19 43 c10 24 33 73 50 111
l30 67 66 0 c50 0 67 4 72 16 7 19 -44 74 -70 74 -15 0 -17 5 -12 29 5 22 0
35 -19 58 -28 33 -78 58 -99 50 -7 -3 -26 -34 -43 -70 -18 -41 -36 -68 -49
-71 -21 -6 -85 -8 -85 -3 0 2 18 43 39 92 37 82 39 91 26 115 -24 47 -102 84
-121 58z m106 -367 c0 -5 -52 -123 -116 -262 l-115 -254 -77 -77 c-42 -43 -80
-78 -84 -78 -5 0 -1 17 7 38 36 85 279 618 288 630 11 14 97 17 97 3z" />
        <path
            d="M2432 6793 c-157 -77 -289 -497 -352 -1118 -18 -174 -24 -779 -11
-983 12 -171 40 -421 62 -549 l11 -63 230 0 c214 0 229 1 224 18 -23 79 -54
416 -67 733 -18 412 6 890 61 1252 56 364 146 625 244 702 l31 25 -200 0
c-164 0 -206 -3 -233 -17z" />
        <path
            d="M7216 6785 c203 -162 344 -1067 305 -1958 -13 -315 -44 -651 -67
-729 -5 -17 10 -18 224 -18 l230 0 11 63 c19 113 50 380 61 529 13 187 13 679
0 868 -44 631 -175 1114 -337 1237 l-36 28 -211 3 -211 2 31 -25z" />
        <path
            d="M2994 6740 c-91 -37 -180 -265 -238 -611 -156 -924 -56 -2339 184
-2613 44 -50 72 -60 115 -42 103 43 211 371 260 786 8 74 18 152 20 173 l5 37
-85 0 c-61 0 -85 -3 -85 -12 0 -7 -9 -70 -20 -140 -21 -136 -42 -202 -62 -196
-35 11 -85 247 -113 528 -34 340 -30 664 11 925 20 123 59 250 85 276 19 19
22 20 39 4 11 -10 26 -38 34 -64 16 -49 43 -199 48 -266 l3 -40 81 -3 80 -3
-3 63 c-37 638 -162 1137 -298 1194 -19 8 -36 14 -37 13 -2 0 -12 -4 -24 -9z" />
        <path
            d="M6993 6735 c-92 -40 -186 -300 -243 -672 -19 -130 -47 -406 -52 -521
l-3 -63 80 3 80 3 3 40 c5 67 32 217 48 266 8 26 23 54 34 64 17 16 20 15 39
-4 26 -26 65 -153 85 -276 41 -261 45 -585 11 -925 -28 -281 -78 -517 -113
-528 -20 -6 -41 60 -62 196 -11 70 -20 133 -20 140 0 9 -24 12 -85 12 l-85 0
5 -37 c2 -21 12 -99 20 -173 49 -415 157 -743 260 -786 44 -18 72 -8 118 47
69 80 135 282 181 560 157 931 55 2356 -187 2613 -49 52 -71 60 -114 41z" />
        <path
            d="M5855 6601 c-135 -61 -275 -245 -305 -398 -16 -82 -1 -150 46 -200
33 -34 35 -35 96 -31 75 5 145 37 245 112 69 52 83 79 52 99 -12 8 -32 -2 -90
-45 -86 -65 -168 -108 -204 -108 -21 0 -25 5 -25 31 0 16 5 50 11 74 11 42 15
47 95 89 162 86 294 209 294 273 0 43 -29 86 -74 107 -44 21 -91 20 -141 -3z
m135 -131 c-19 -35 -215 -189 -226 -177 -6 6 72 97 111 129 30 25 103 67 118
68 4 0 3 -9 -3 -20z" />
        <path
            d="M1830 6402 c-131 -70 -240 -431 -281 -927 -18 -214 -6 -750 20 -940
11 -82 21 -153 21 -157 0 -10 360 -11 360 -1 0 3 -8 74 -17 157 -25 223 -25
915 0 1146 24 216 60 426 98 575 17 66 33 130 36 143 5 22 4 22 -98 22 -82 0
-112 -4 -139 -18z" />
        <path
            d="M7983 6398 c2 -12 19 -77 36 -143 38 -149 74 -359 98 -575 25 -231
25 -923 0 -1146 -9 -83 -17 -154 -17 -157 0 -4 80 -7 179 -7 l179 0 11 78 c34
241 36 278 36 662 0 353 -3 412 -23 560 -52 379 -139 640 -241 719 -32 24 -43
26 -149 29 l-115 4 6 -24z" />
        <path
            d="M1326 5918 c-58 -58 -103 -215 -131 -456 -18 -153 -19 -559 -2 -707
l12 -100 118 -3 118 -3 -8 83 c-13 134 -9 680 6 818 12 122 46 348 57 383 5
15 -3 17 -66 17 -68 0 -74 -2 -104 -32z" />
        <path
            d="M8554 5933 c11 -35 45 -261 57 -383 15 -138 19 -684 6 -818 l-8 -83
118 3 118 3 12 100 c17 149 17 554 -2 707 -28 235 -71 390 -127 454 -29 33
-32 34 -105 34 -66 0 -74 -2 -69 -17z" />
        <path
            d="M962 5348 c-18 -22 -32 -128 -32 -243 0 -115 14 -221 32 -242 6 -8
34 -13 67 -13 l56 0 0 255 0 255 -56 0 c-33 0 -61 -5 -67 -12z" />
        <path
            d="M3130 5313 c-7 -27 -14 -85 -17 -130 l-6 -83 1932 0 1931 0 0 28 c-1
42 -19 163 -31 200 l-11 32 -1893 0 -1893 0 -12 -47z" />
        <path
            d="M8965 5105 l0 -255 56 0 c33 0 61 5 67 13 18 21 32 127 32 242 0 115
-14 221 -32 243 -6 7 -34 12 -67 12 l-56 0 0 -255z" />
        <path
            d="M3120 4944 c0 -3 5 -25 11 -50 l11 -44 1894 0 c1041 0 1895 4 1898 8
3 5 8 28 12 50 l7 42 -1917 0 c-1054 0 -1916 -3 -1916 -6z" />
        <path
            d="M1267 4502 c-10 -10 -17 -28 -17 -40 0 -37 41 -132 72 -168 29 -33
32 -34 105 -34 62 0 74 3 70 15 -4 8 -14 66 -24 130 l-18 115 -86 0 c-71 0
-89 -3 -102 -18z" />
        <path
            d="M8577 4405 c-10 -64 -20 -122 -24 -130 -4 -12 8 -15 70 -15 73 0 76
1 105 34 30 34 72 130 72 164 0 10 -7 28 -16 40 -14 20 -24 22 -102 22 l-87 0
-18 -115z" />
        <path
            d="M5003 3989 c-191 -210 -349 -386 -351 -390 -2 -5 96 -10 218 -11
l222 -3 -229 -295 c-325 -419 -302 -386 -213 -314 41 33 273 220 515 415 l440
354 -228 5 -229 5 291 302 c160 166 291 304 291 308 0 3 -85 5 -189 5 l-190 0
-348 -381z" />
        <path
            d="M1660 4203 c-25 -32 -24 -43 21 -167 38 -107 101 -203 149 -228 27
-14 57 -18 137 -18 63 0 103 4 103 10 0 6 -9 43 -21 83 -11 39 -33 133 -48
207 l-29 135 -145 3 -145 3 -22 -28z" />
        <path
            d="M8076 4218 c-2 -7 -14 -62 -26 -123 -12 -60 -32 -149 -46 -197 -13
-48 -24 -92 -24 -97 0 -7 37 -11 103 -11 127 0 156 13 213 97 47 69 104 217
104 269 0 21 -8 42 -20 54 -18 18 -33 20 -160 20 -104 0 -142 -3 -144 -12z" />
        <path
            d="M2253 3940 c-12 -5 -29 -21 -39 -35 -23 -35 -14 -91 36 -219 48 -123
103 -212 156 -252 l37 -29 211 -3 211 -2 -31 25 c-78 62 -146 224 -208 498
l-6 27 -173 -1 c-94 0 -182 -4 -194 -9z" />
        <path
            d="M7424 3923 c-62 -275 -130 -436 -208 -498 l-31 -25 211 2 211 3 37
29 c53 40 108 129 157 254 50 130 57 199 21 234 -22 22 -30 23 -207 26 l-184
3 -7 -28z" />
        <path
            d="M3063 3287 c-29 -11 -53 -25 -53 -31 0 -16 188 -195 304 -288 149
-121 321 -229 501 -318 193 -95 340 -149 540 -200 252 -64 351 -75 670 -75
319 0 418 11 670 75 379 96 742 276 1041 518 116 93 304 272 304 288 0 6 -24
20 -52 31 l-53 19 -109 -104 c-273 -260 -616 -466 -976 -585 -281 -94 -514
-130 -825 -130 -311 0 -544 36 -825 130 -360 119 -703 325 -976 585 l-109 104
-52 -19z" />
        <path
            d="M2542 2949 c-34 -28 -62 -59 -62 -68 0 -20 -45 -64 -215 -207 -162
-137 -188 -156 -215 -158 -11 0 -47 -23 -80 -50 -51 -42 -58 -52 -47 -65 6 -9
56 -69 111 -133 l98 -118 59 52 c32 28 59 57 59 64 0 8 13 28 29 46 l30 33 37
-45 c131 -155 225 -193 340 -135 64 32 207 154 241 206 40 61 44 148 10 215
-21 42 -122 168 -292 367 l-40 47 -63 -51z m158 -388 c0 -26 -11 -40 -67 -86
-87 -72 -106 -77 -145 -38 l-30 30 102 87 102 86 19 -24 c10 -13 19 -38 19
-55z" />
        <path
            d="M7341 2865 c-68 -76 -111 -131 -108 -140 3 -7 49 -79 101 -159 52
-80 92 -146 89 -146 -4 0 -79 39 -167 87 l-160 86 -64 -69 c-35 -38 -89 -98
-120 -133 l-57 -64 60 -53 c34 -30 70 -54 82 -54 14 0 84 -57 200 -161 192
-174 212 -195 213 -221 0 -9 26 -39 57 -67 65 -59 51 -64 165 62 l82 90 -57
53 c-35 33 -67 54 -81 54 -20 0 -134 94 -221 182 l-20 20 35 -17 c19 -10 120
-63 223 -117 184 -97 189 -99 209 -81 46 41 46 42 -90 245 -157 236 -155 232
-101 183 113 -102 179 -171 179 -186 0 -18 106 -123 118 -117 11 4 225 238
221 241 -2 1 -30 26 -61 55 -35 32 -66 52 -81 52 -28 0 -400 334 -405 365 -3
18 -109 135 -122 135 -3 0 -56 -56 -119 -125z" />
        <path
            d="M3073 2336 c-26 -41 -40 -71 -37 -83 8 -28 -271 -443 -308 -461 -25
-12 -108 -119 -108 -139 1 -8 280 -197 284 -191 43 55 86 132 82 146 -8 25 80
163 99 156 24 -10 47 -53 39 -77 -4 -12 -33 -62 -64 -112 -74 -116 -94 -156
-83 -165 15 -13 223 -151 237 -156 18 -7 97 115 90 141 -3 13 12 48 40 95 58
96 63 120 37 170 l-21 40 47 0 c63 0 121 36 166 102 45 68 62 123 53 182 -12
79 -52 118 -281 273 -116 78 -214 142 -220 142 -5 0 -29 -28 -52 -63z m241
-287 c28 -22 34 -56 15 -92 -20 -39 -52 -67 -75 -67 -28 0 -74 20 -74 32 0 12
92 148 100 148 4 0 19 -9 34 -21z" />
        <path
            d="M6455 2099 c-93 -55 -169 -105 -169 -112 1 -7 54 -160 118 -340 64
-180 116 -342 116 -360 0 -25 50 -128 75 -155 3 -3 246 136 259 148 13 13 -63
140 -83 140 -19 0 -51 30 -51 46 0 5 26 24 56 42 65 37 87 31 82 -22 -2 -21 9
-52 35 -98 l38 -67 147 85 c81 47 150 89 154 92 4 4 -9 36 -29 71 -25 43 -45
66 -64 73 -17 6 -116 110 -269 284 -133 151 -243 274 -243 273 -1 0 -78 -46
-172 -100z m194 -321 c40 -48 70 -92 66 -98 -7 -11 -65 -43 -70 -38 -5 5 -85
225 -85 234 0 9 -3 13 89 -98z" />
        <path
            d="M3907 1890 c-43 -13 -94 -56 -121 -103 -13 -23 -57 -143 -96 -267
-85 -266 -92 -326 -48 -401 14 -24 39 -54 55 -65 128 -95 348 -141 448 -95 82
38 102 76 195 369 54 173 70 236 70 283 0 101 -44 163 -158 219 -116 57 -266
83 -345 60z m208 -224 l24 -24 -18 -64 c-10 -34 -42 -139 -72 -232 -58 -184
-75 -210 -124 -188 -14 6 -27 22 -30 34 -3 14 23 112 65 243 82 258 100 286
155 231z" />
        <path
            d="M5600 1773 c-124 -30 -228 -58 -232 -62 -12 -11 28 -147 49 -168 29
-29 147 -507 132 -535 -8 -15 -6 -38 6 -91 10 -40 20 -75 24 -79 5 -5 319 67
328 76 10 10 -33 144 -53 166 -12 14 -30 55 -40 94 -14 58 -15 69 -3 77 49 31
89 -11 117 -121 28 -112 58 -195 68 -194 5 1 71 16 147 34 102 24 137 36 137
47 0 39 -33 135 -53 156 -14 13 -31 51 -41 91 -23 91 -46 124 -102 138 l-44
12 29 31 c53 54 63 114 38 213 -19 70 -60 127 -111 152 -69 33 -142 26 -396
-37z m200 -163 c22 -12 40 -61 40 -111 0 -32 -5 -41 -30 -54 -50 -26 -56 -21
-79 70 -11 46 -21 86 -21 89 0 14 66 19 90 6z" />
        <path
            d="M4780 1727 c-30 -7 -69 -21 -87 -30 -46 -24 -90 -83 -102 -136 -15
-62 -30 -483 -20 -554 12 -94 66 -159 157 -191 62 -22 205 -30 292 -17 97 15
197 61 204 93 3 13 7 111 10 219 l6 196 -46 7 c-26 3 -98 6 -160 6 l-114 0 0
-39 c0 -21 -3 -59 -6 -85 -7 -45 -6 -46 20 -46 25 0 26 -2 26 -52 0 -68 -17
-102 -53 -106 -60 -7 -61 -2 -53 263 8 265 12 285 66 285 37 0 50 -23 50 -88
l0 -49 132 -7 c72 -3 133 -4 135 -2 2 2 7 53 10 113 l6 110 -35 26 c-97 74
-307 114 -438 84z" />
    </g>
</svg>